<svg width="512" height="512" viewBox="0 0 512 512" fill="none" xmlns="http://www.w3.org/2000/svg">
  <defs>
    <linearGradient id="primaryGradient" x1="0" y1="0" x2="512" y2="512" gradientUnits="userSpaceOnUse">
      <stop offset="0%" stop-color="#0066FF"/>
      <stop offset="100%" stop-color="#0033CC"/>
    </linearGradient>
    <filter id="dropshadow" x="-20%" y="-20%" width="140%" height="140%">
      <feGaussianBlur in="SourceAlpha" stdDeviation="10"/>
      <feOffset dx="2" dy="4" result="offsetblur"/>
      <feComponentTransfer>
        <feFuncA type="linear" slope="0.3"/>
      </feComponentTransfer>
      <feMerge> 
        <feMergeNode/>
        <feMergeNode in="SourceGraphic"/> 
      </feMerge>
    </filter>
  </defs>
  
  <!-- Background Circle -->
  <circle cx="256" cy="256" r="240" fill="url(#primaryGradient)" filter="url(#dropshadow)"/>
  
  <!-- Abstract 'Go' Arrow/Symbol -->
  <path d="M180 150 L380 256 L180 362 V290 H130 V222 H180 V150 Z" fill="white" stroke="none" transform="translate(10, 0)"/>
  <path d="M380 256 L180 150 V210 L300 256 L180 302 V362 L380 256 Z" fill="rgba(255,255,255,0.2)"/>
  
  <!-- Initial 'G' suggestion -->
  <path d="M330 180 C330 180 300 130 256 130 C186.4 130 130 186.4 130 256 C130 325.6 186.4 382 256 382 C300 382 340 350 340 350" stroke="white" stroke-width="40" stroke-linecap="round" fill="none" opacity="0.9" transform="scale(0.85) translate(40,40)"/>
</svg>
